<?xml version="1.0" encoding="UTF-8"?>
<svg width="321px" height="98px" viewBox="0 0 321 98" version="1.1" xmlns="http://www.w3.org/2000/svg" xmlns:xlink="http://www.w3.org/1999/xlink">
    <title>编组 23</title>
    <defs>
        <path d="M42.7225433,1.660809 L42.996827,1.86041636 C47.0987439,4.84554691 48.0040781,10.590734 45.0189476,14.6926509 C44.9663842,14.7648791 44.91277,14.8363367 44.8581221,14.9070009 L25.573,39.844 L25.5730004,40.0726601 C24.5651719,41.5370247 23.9779766,43.2946944 23.9779766,45.1848128 C23.9779766,50.2918877 28.2649323,54.4319899 33.5531602,54.4319899 L11.2110652,54.4319899 L11.2119332,54.3920864 C8.79410199,54.8109135 6.21829699,54.2862858 4.08354769,52.7327426 L3.80926394,52.5331352 C-0.292652944,49.5480046 -1.19798715,43.8028176 1.7871434,39.7009007 C1.83970678,39.6286725 1.89332097,39.5572149 1.94796887,39.4865507 L29.7714821,3.50847621 C32.8782481,-0.508825893 38.6163266,-1.32745067 42.7225433,1.660809 Z" id="path-1"></path>
        <filter x="-3.1%" y="-4.8%" width="112.7%" height="109.7%" filterUnits="objectBoundingBox" id="filter-2">
            <feMorphology radius="0.5" operator="erode" in="SourceAlpha" result="shadowSpreadOuter1"></feMorphology>
            <feOffset dx="2" dy="0" in="shadowSpreadOuter1" result="shadowOffsetOuter1"></feOffset>
            <feGaussianBlur stdDeviation="1" in="shadowOffsetOuter1" result="shadowBlurOuter1"></feGaussianBlur>
            <feColorMatrix values="0 0 0 0 0   0 0 0 0 0   0 0 0 0 0  0 0 0 0.19 0" type="matrix" in="shadowBlurOuter1"></feColorMatrix>
        </filter>
        <polygon id="path-3" points="90.6639702 96 320 96 320 0 90.6639702 0"></polygon>
        <polygon id="path-5" points="86.7308541 0 94.941149 0 101.320716 19.5123796 104.842901 27.6157713 96.3301453 27.6157713"></polygon>
        <filter x="-8.3%" y="-5.4%" width="116.6%" height="110.9%" filterUnits="objectBoundingBox" id="filter-6">
            <feOffset dx="0" dy="0" in="SourceAlpha" result="shadowOffsetOuter1"></feOffset>
            <feGaussianBlur stdDeviation="0.5" in="shadowOffsetOuter1" result="shadowBlurOuter1"></feGaussianBlur>
            <feColorMatrix values="0 0 0 0 0   0 0 0 0 0   0 0 0 0 0  0 0 0 0.28 0" type="matrix" in="shadowBlurOuter1"></feColorMatrix>
        </filter>
        <rect id="path-7" x="4.11252328e-13" y="5.68602912e-14" width="14.0205433" height="49.1894089"></rect>
        <filter x="-21.4%" y="-6.1%" width="142.8%" height="112.2%" filterUnits="objectBoundingBox" id="filter-8">
            <feOffset dx="0" dy="0" in="SourceAlpha" result="shadowOffsetOuter1"></feOffset>
            <feGaussianBlur stdDeviation="1" in="shadowOffsetOuter1" result="shadowBlurOuter1"></feGaussianBlur>
            <feColorMatrix values="0 0 0 0 0   0 0 0 0 0   0 0 0 0 0  0 0 0 0.28 0" type="matrix" in="shadowBlurOuter1"></feColorMatrix>
        </filter>
    </defs>
    <g id="页面-1" stroke="none" stroke-width="1" fill="none" fill-rule="evenodd">
        <g id="Netboom-启动图标备份-2" transform="translate(-1195.000000, -836.000000)">
            <g id="编组-23" transform="translate(1195.465318, 836.000000)">
                <g id="编组-5">
                    <rect id="矩形" fill="#8229E5" x="29.1230666" y="-3.55271368e-15" width="66.6760282" height="19.0734443" rx="9.5"></rect>
                    <ellipse id="椭圆形" fill="#BF0370" cx="10.0727729" cy="9.53672214" rx="9.52514688" ry="9.53672214"></ellipse>
                    <ellipse id="椭圆形" fill="#BF0370" cx="10.0727729" cy="9.53672214" rx="9.52514688" ry="9.53672214"></ellipse>
                    <g id="编组-18" transform="translate(0.000000, 41.568010)">
                        <rect id="矩形" fill="#8229E5" x="0.0472589627" y="35.9376357" width="95.7518358" height="18.4943541" rx="9.21156985"></rect>
                        <g id="形状结合">
                            <use fill="black" fill-opacity="1" filter="url(#filter-2)" xlink:href="#path-1"></use>
                            <use fill="#5336F0" fill-rule="evenodd" xlink:href="#path-1"></use>
                        </g>
                        <path d="" id="路径-7" stroke="#979797"></path>
                    </g>
                </g>
                <mask id="mask-4" fill="white">
                    <use xlink:href="#path-3"></use>
                </mask>
                <g id="Clip-8"></g>
                <g id="编组-2" mask="url(#mask-4)">
                    <g transform="translate(104.011269, 0.021584)">
                        <path d="M15.9184256,-2.72530357e-14 L23.4683488,-2.72530357e-14 L23.4683488,16.1773988 C23.4683488,17.7809578 23.2430318,19.2960729 22.7920368,20.7208782 C22.3410419,22.1464298 21.6336766,23.3928545 20.6706633,24.4601523 C19.707289,25.527077 18.6966125,26.2767977 17.6389949,26.7085682 C16.1690185,27.3131215 14.4040358,27.6157713 12.3440467,27.6157713 C11.1521056,27.6157713 9.85220014,27.5228493 8.44360814,27.3381246 C7.03465506,27.1526537 5.85715736,26.7858167 4.91111505,26.2368673 C3.96435057,25.6875448 3.0984691,24.9072232 2.31347064,23.8951562 C1.52847217,22.8834624 0.991177914,21.8407945 0.701587864,20.7671526 C0.233982983,19.0400707 -2.17503453e-14,17.5096552 -2.17503453e-14,16.1773988 L-2.17503453e-14,-2.72530357e-14 L7.54992314,-2.72530357e-14 L7.54992314,16.5625216 C7.54992314,18.0429309 7.92003511,19.199419 8.66062014,20.0323591 C9.40120516,20.864926 10.4284916,21.2810229 11.7424793,21.2810229 C13.0452735,21.2810229 14.0671436,20.8712701 14.8077286,20.050645 C15.5483137,19.2300198 15.9184256,18.0675608 15.9184256,16.5625216 L15.9184256,-2.72530357e-14 Z" id="Fill-1" fill="#8229E5" fill-rule="evenodd"></path>
                        <polygon id="Fill-3" fill="#8229E5" fill-rule="evenodd" points="28.5701637 -2.72530357e-14 36.1410251 -2.72530357e-14 36.1410251 20.8154446 47.9570605 20.8154446 47.9570605 27.6157713 28.5701637 27.6157713"></polygon>
                        <polygon id="Fill-5" fill="#8229E5" fill-rule="evenodd" points="48.9774235 -2.72530357e-14 72.4457723 -2.72530357e-14 72.4457723 6.81930407 64.572023 6.81930407 64.572023 27.6157713 56.8515412 27.6157713 56.8515412 6.81930407 48.9774235 6.81930407"></polygon>
                        <polygon id="Fill-7" fill="#8229E5" fill-rule="evenodd" points="74.4864983 27.6157713 82.6494022 27.6157713 82.6494022 -2.72530357e-14 74.4864983 -2.72530357e-14"></polygon>
                        <polygon id="Fill-9" fill="#5336F0" fill-rule="evenodd" points="86.7308541 -2.72530357e-14 94.941149 -2.72530357e-14 100.66167 19.8734113 106.309105 -2.72530357e-14 114.280655 -2.72530357e-14 104.842901 27.6157713 96.3301453 27.6157713"></polygon>
                        <g id="Fill-9" fill="none">
                            <use fill="black" fill-opacity="1" filter="url(#filter-6)" xlink:href="#path-5"></use>
                            <use fill="#BF0370" fill-rule="evenodd" xlink:href="#path-5"></use>
                        </g>
                        <polygon id="Fill-10" fill="#8229E5" fill-rule="evenodd" points="116.321381 -2.72530357e-14 137.367492 -2.72530357e-14 137.367492 5.8958685 124.191842 5.8958685 124.191842 10.2853187 136.414087 10.2853187 136.414087 15.9174027 124.191842 15.9174027 124.191842 21.3616114 137.749004 21.3616114 137.749004 27.6157713 116.321381 27.6157713"></polygon>
                        <path d="M148.63858,11.2325141 L151.941608,11.2325141 C152.299016,11.2325141 152.991025,11.0951811 154.017263,10.8205149 C154.535803,10.6968737 154.959757,10.3811321 155.288378,9.87329017 C155.616998,9.36544825 155.781121,8.78209389 155.781121,8.12281219 C155.781121,7.1482038 155.521664,6.40054765 155.002751,5.87859901 C154.484211,5.35665037 153.509565,5.09567605 152.080309,5.09567605 L148.63858,5.09567605 L148.63858,11.2325141 Z M142.516402,27.5974157 L142.516402,-0.0183556795 L154.803986,-0.0183556795 C157.082357,-0.0183556795 158.823855,0.20747733 160.028126,0.659522901 C161.232398,1.11156847 162.203415,1.94999724 162.941177,3.17442966 C163.678938,4.39886208 164.047995,5.8904986 164.047995,7.64858011 C164.047995,9.18082862 163.765837,10.5020466 163.20117,11.6137523 C162.636503,12.7250784 161.860393,13.6265127 160.872489,14.3169165 C160.242735,14.7564369 159.379726,15.1208061 158.283463,15.4096446 C159.161599,15.749343 159.801204,16.0886619 160.202628,16.4276011 C160.473528,16.6538137 160.866508,17.1381211 161.381569,17.8797643 C161.89663,18.6214075 162.241059,19.1933913 162.414506,19.5953361 L165.984751,27.5974157 L157.654061,27.5974157 L153.713351,19.158093 C153.214122,18.0657445 152.769424,17.3563631 152.378907,17.0295695 C151.84731,16.6029538 151.244999,16.3888869 150.572675,16.3888869 L149.921461,16.3888869 L149.921461,27.5974157 L142.516402,27.5974157 Z" id="Fill-11" fill="#8229E5" fill-rule="evenodd"></path>
                        <path d="M168.359893,18.3256089 L175.634582,17.833794 C175.791839,19.1088424 176.112556,20.0803603 176.596732,20.7483476 C177.384112,21.8292392 178.509357,22.3698685 179.972103,22.3698685 C181.063416,22.3698685 181.904796,22.0934979 182.495513,21.5407568 C183.08623,20.9883826 183.381406,20.3475552 183.381406,19.6186415 C183.381406,18.9267975 183.100095,18.3072576 182.537837,17.7607558 C181.97485,17.2146211 180.669726,16.6982155 178.621736,16.2126401 C175.268622,15.3989434 172.877658,14.3180518 171.448845,12.9699653 C170.008356,11.6218787 169.288111,9.90382996 169.288111,7.81471789 C169.288111,6.44277465 169.656625,5.14643877 170.393654,3.92607727 C171.130682,2.70498172 172.239143,1.74594275 173.719038,1.04785927 C175.198203,0.349408765 177.22649,-2.72530357e-14 179.803535,-2.72530357e-14 C182.965095,-2.72530357e-14 185.375761,0.634955004 187.035899,1.90376393 C188.695308,3.17293989 189.682634,5.19194999 189.997878,7.96079424 L182.791054,8.4159065 C182.5995,7.21389631 182.197418,6.33964034 181.584079,5.79313861 C180.97074,5.24626984 180.124252,4.97320249 179.043885,4.97320249 C178.155073,4.97320249 177.48518,5.17690193 177.035301,5.58319973 C176.585057,5.9905986 176.360299,6.48498264 176.360299,7.06818698 C176.360299,7.4932031 176.546016,7.87564421 176.917449,8.2155103 C177.277206,8.56785527 178.132451,8.89597653 179.482818,9.19950704 C182.824622,9.97650111 185.218504,10.7634049 186.664466,11.5583832 C188.110064,12.3537286 189.162336,13.3406616 189.820553,14.518448 C190.479135,15.6966015 190.807879,17.0142249 190.807879,18.4713182 C190.807879,20.1834946 190.369311,21.7624405 189.491809,23.2074219 C188.613943,24.6527703 187.387265,25.74871 185.812141,26.495608 C184.236651,27.2425059 182.250688,27.6157713 179.853887,27.6157713 C175.645528,27.6157713 172.731347,26.7415154 171.111344,24.9926364 C169.490976,23.2437575 168.57334,21.021782 168.359893,18.3256089" id="Fill-12" fill="#8229E5" fill-rule="evenodd"></path>
                        <polygon id="Fill-13" fill="#8229E5" fill-rule="evenodd" points="194.889331 -2.72530357e-14 215.935442 -2.72530357e-14 215.935442 5.8958685 202.760167 5.8958685 202.760167 10.2853187 214.982412 10.2853187 214.982412 15.9174027 202.760167 15.9174027 202.760167 21.3616114 216.316954 21.3616114 216.316954 27.6157713 194.889331 27.6157713"></polygon>
                    </g>
                </g>
                <g id="编组-4" mask="url(#mask-4)">
                    <g transform="translate(104.684514, 46.174244)">
                        <path d="M13.0190759,22.0850407 L16.5330457,22.0850407 C19.2970036,22.0850407 21.2390963,21.5733656 22.3572709,20.5486546 C23.4761298,19.5239435 24.0352171,18.2134565 24.0352171,16.6144718 C24.0352171,15.0610751 23.5493518,13.7437839 22.5789897,12.6632785 C21.6079434,11.5820927 19.7828689,11.0425204 17.1023977,11.0425204 L13.0190759,11.0425204 L13.0190759,22.0850407 Z M2.83622295e-14,5.68602912e-14 L23.6412048,5.68602912e-14 C28.7905121,5.68602912e-14 32.6468933,1.30883309 35.2110271,3.92582322 C37.7744822,6.54281335 39.0572278,10.2678497 39.0572278,15.098904 C39.0572278,20.0651684 37.6597817,23.9463724 34.8655681,26.7425158 C32.0713546,29.5386592 27.8063952,30.9360549 22.0713686,30.9360549 L14.2853064,30.9360549 L14.2853064,49.1894089 L2.83622295e-14,49.1894089 L2.83622295e-14,5.68602912e-14 Z" id="Fill-14" fill="#BF0370" fill-rule="evenodd"></path>
                        <g id="矩形" fill="none">
                            <use fill="black" fill-opacity="1" filter="url(#filter-8)" xlink:href="#path-7"></use>
                            <use fill="#BF0370" fill-rule="evenodd" xlink:href="#path-7"></use>
                        </g>
                        <rect id="矩形" fill="#BF0370" fill-rule="evenodd" x="2.55260066e-13" y="-1.03059278e-13" width="22.0322823" height="11.0425204"></rect>
                    </g>
                </g>
                <polygon id="Fill-15" fill="#BF0370" mask="url(#mask-4)" points="148.125992 46.4454055 161.611265 46.4454055 161.611265 83.5220239 182.658071 83.5220239 182.658071 95.6348144 148.125992 95.6348144"></polygon>
                <path d="M215.847393,75.2863429 L211.317489,58.2206296 L206.834186,75.2863429 L215.847393,75.2863429 Z M219.036231,87.2436143 L203.223288,87.2436143 L201.026584,95.3636527 L186.804839,95.3636527 L203.746376,46.1742438 L218.939191,46.1742438 L235.87674,95.3636527 L221.291425,95.3636527 L219.036231,87.2436143 Z" id="Fill-16" fill="#BF0370" mask="url(#mask-4)"></path>
                <polygon id="Fill-17" fill="#BF0370" mask="url(#mask-4)" points="229.912495 46.4454055 245.393658 46.4454055 254.480702 63.0397325 263.586369 46.4454055 278.984397 46.4454055 261.448124 75.0328621 261.448124 95.6348144 247.480027 95.6348144 247.480027 75.0328621"></polygon>
            </g>
        </g>
    </g>
</svg>